<svg xmlns="http://www.w3.org/2000/svg" xmlns:xlink="http://www.w3.org/1999/xlink" width="400" zoomAndPan="magnify" viewBox="0 0 300 74.999997" height="100" preserveAspectRatio="xMidYMid meet" version="1.2"><defs><clipPath id="b050685915"><path d="M 2.648438 0.136719 L 77.375 0.136719 L 77.375 74.863281 L 2.648438 74.863281 Z M 2.648438 0.136719 "/></clipPath><clipPath id="4735b858ce"><path d="M 40.011719 0.136719 C 19.375 0.136719 2.648438 16.863281 2.648438 37.5 C 2.648438 58.136719 19.375 74.863281 40.011719 74.863281 C 60.644531 74.863281 77.375 58.136719 77.375 37.5 C 77.375 16.863281 60.644531 0.136719 40.011719 0.136719 Z M 40.011719 0.136719 "/></clipPath></defs><g id="b3082fefff"><g clip-rule="nonzero" clip-path="url(#b050685915)"><g clip-rule="nonzero" clip-path="url(#4735b858ce)"><path style=" stroke:none;fill-rule:nonzero;fill:#169d53;fill-opacity:1;" d="M 2.648438 0.136719 L 77.375 0.136719 L 77.375 74.863281 L 2.648438 74.863281 Z M 2.648438 0.136719 "/></g></g><g style="fill:#ffffff;fill-opacity:1;"><g transform="translate(12.353291, 75.470079)"><path style="stroke:none" d="M 7.390625 0 L 7.390625 -61.015625 L 43.96875 -61.015625 L 43.96875 -54.453125 L 14.78125 -54.453125 L 14.78125 -33.84375 L 41.234375 -33.84375 L 41.234375 -27.28125 L 14.78125 -27.28125 L 14.78125 0 Z M 7.390625 0 "/></g></g><g style="fill:#000000;fill-opacity:1;"><g transform="translate(75.948324, 51.642121)"><path style="stroke:none" d="M 2.96875 0 L 2.96875 -24.5 L 17.65625 -24.5 L 17.65625 -21.875 L 5.9375 -21.875 L 5.9375 -13.59375 L 16.5625 -13.59375 L 16.5625 -10.953125 L 5.9375 -10.953125 L 5.9375 0 Z M 2.96875 0 "/></g></g><g style="fill:#000000;fill-opacity:1;"><g transform="translate(95.701168, 51.642121)"><path style="stroke:none" d="M 7.984375 0.4375 C 6.828125 0.4375 5.769531 0.21875 4.8125 -0.21875 C 3.863281 -0.664062 3.109375 -1.3125 2.546875 -2.15625 C 1.992188 -3 1.71875 -4.019531 1.71875 -5.21875 C 1.71875 -6.269531 1.925781 -7.125 2.34375 -7.78125 C 2.757812 -8.4375 3.3125 -8.953125 4 -9.328125 C 4.695312 -9.703125 5.46875 -9.984375 6.3125 -10.171875 C 7.15625 -10.359375 8.003906 -10.507812 8.859375 -10.625 C 9.972656 -10.769531 10.878906 -10.878906 11.578125 -10.953125 C 12.273438 -11.023438 12.785156 -11.148438 13.109375 -11.328125 C 13.429688 -11.515625 13.59375 -11.835938 13.59375 -12.296875 L 13.59375 -12.390625 C 13.59375 -13.578125 13.269531 -14.492188 12.625 -15.140625 C 11.976562 -15.796875 11.007812 -16.125 9.71875 -16.125 C 8.363281 -16.125 7.300781 -15.828125 6.53125 -15.234375 C 5.769531 -14.648438 5.234375 -14.019531 4.921875 -13.34375 L 2.25 -14.3125 C 2.726562 -15.425781 3.367188 -16.296875 4.171875 -16.921875 C 4.972656 -17.546875 5.847656 -17.984375 6.796875 -18.234375 C 7.753906 -18.484375 8.695312 -18.609375 9.625 -18.609375 C 10.207031 -18.609375 10.882812 -18.539062 11.65625 -18.40625 C 12.425781 -18.269531 13.171875 -17.984375 13.890625 -17.546875 C 14.617188 -17.117188 15.21875 -16.46875 15.6875 -15.59375 C 16.164062 -14.726562 16.40625 -13.566406 16.40625 -12.109375 L 16.40625 0 L 13.59375 0 L 13.59375 -2.484375 L 13.453125 -2.484375 C 13.253906 -2.085938 12.929688 -1.660156 12.484375 -1.203125 C 12.035156 -0.753906 11.441406 -0.367188 10.703125 -0.046875 C 9.960938 0.273438 9.054688 0.4375 7.984375 0.4375 Z M 8.421875 -2.109375 C 9.535156 -2.109375 10.476562 -2.328125 11.25 -2.765625 C 12.019531 -3.203125 12.601562 -3.765625 13 -4.453125 C 13.394531 -5.148438 13.59375 -5.882812 13.59375 -6.65625 L 13.59375 -9.234375 C 13.46875 -9.085938 13.203125 -8.957031 12.796875 -8.84375 C 12.398438 -8.726562 11.941406 -8.628906 11.421875 -8.546875 C 10.898438 -8.460938 10.390625 -8.390625 9.890625 -8.328125 C 9.398438 -8.273438 9.003906 -8.226562 8.703125 -8.1875 C 7.972656 -8.09375 7.289062 -7.9375 6.65625 -7.71875 C 6.019531 -7.507812 5.507812 -7.195312 5.125 -6.78125 C 4.738281 -6.363281 4.546875 -5.796875 4.546875 -5.078125 C 4.546875 -4.085938 4.910156 -3.34375 5.640625 -2.84375 C 6.367188 -2.351562 7.296875 -2.109375 8.421875 -2.109375 Z M 8.421875 -2.109375 "/></g></g><g style="fill:#000000;fill-opacity:1;"><g transform="translate(114.688769, 51.642121)"><path style="stroke:none" d="M 2.96875 0 L 2.96875 -24.5 L 5.796875 -24.5 L 5.796875 -15.453125 L 6.03125 -15.453125 C 6.238281 -15.773438 6.523438 -16.1875 6.890625 -16.6875 C 7.265625 -17.1875 7.800781 -17.628906 8.5 -18.015625 C 9.195312 -18.410156 10.144531 -18.609375 11.34375 -18.609375 C 12.882812 -18.609375 14.242188 -18.222656 15.421875 -17.453125 C 16.609375 -16.679688 17.53125 -15.582031 18.1875 -14.15625 C 18.851562 -12.738281 19.1875 -11.066406 19.1875 -9.140625 C 19.1875 -7.191406 18.851562 -5.503906 18.1875 -4.078125 C 17.53125 -2.660156 16.613281 -1.5625 15.4375 -0.78125 C 14.269531 0 12.921875 0.390625 11.390625 0.390625 C 10.210938 0.390625 9.265625 0.191406 8.546875 -0.203125 C 7.835938 -0.597656 7.289062 -1.050781 6.90625 -1.5625 C 6.53125 -2.070312 6.238281 -2.492188 6.03125 -2.828125 L 5.6875 -2.828125 L 5.6875 0 Z M 5.75 -9.1875 C 5.75 -7.101562 6.195312 -5.410156 7.09375 -4.109375 C 8 -2.804688 9.300781 -2.15625 11 -2.15625 C 12.1875 -2.15625 13.175781 -2.46875 13.96875 -3.09375 C 14.757812 -3.71875 15.351562 -4.5625 15.75 -5.625 C 16.15625 -6.6875 16.359375 -7.875 16.359375 -9.1875 C 16.359375 -10.476562 16.160156 -11.644531 15.765625 -12.6875 C 15.378906 -13.726562 14.785156 -14.550781 13.984375 -15.15625 C 13.191406 -15.769531 12.195312 -16.078125 11 -16.078125 C 9.28125 -16.078125 7.972656 -15.441406 7.078125 -14.171875 C 6.191406 -12.910156 5.75 -11.25 5.75 -9.1875 Z M 5.75 -9.1875 "/></g></g><g style="fill:#000000;fill-opacity:1;"><g transform="translate(135.589472, 51.642121)"><path style="stroke:none" d="M 2.578125 0 L 2.578125 -18.375 L 5.3125 -18.375 L 5.3125 -15.59375 L 5.5 -15.59375 C 5.832031 -16.507812 6.4375 -17.25 7.3125 -17.8125 C 8.1875 -18.375 9.175781 -18.65625 10.28125 -18.65625 C 10.789062 -18.65625 11.238281 -18.59375 11.625 -18.46875 C 12.007812 -18.351562 12.347656 -18.195312 12.640625 -18 L 11.671875 -15.59375 C 11.472656 -15.695312 11.238281 -15.78125 10.96875 -15.84375 C 10.707031 -15.90625 10.398438 -15.9375 10.046875 -15.9375 C 8.710938 -15.9375 7.601562 -15.523438 6.71875 -14.703125 C 5.84375 -13.890625 5.40625 -12.863281 5.40625 -11.625 L 5.40625 0 Z M 2.578125 0 "/></g></g><g style="fill:#000000;fill-opacity:1;"><g transform="translate(148.502954, 51.642121)"><path style="stroke:none" d="M 2.578125 0 L 2.578125 -18.375 L 5.40625 -18.375 L 5.40625 0 Z M 4.015625 -21.4375 C 3.460938 -21.4375 2.988281 -21.625 2.59375 -22 C 2.207031 -22.375 2.015625 -22.828125 2.015625 -23.359375 C 2.015625 -23.878906 2.207031 -24.328125 2.59375 -24.703125 C 2.988281 -25.078125 3.460938 -25.265625 4.015625 -25.265625 C 4.566406 -25.265625 5.039062 -25.078125 5.4375 -24.703125 C 5.832031 -24.328125 6.03125 -23.878906 6.03125 -23.359375 C 6.03125 -22.828125 5.832031 -22.375 5.4375 -22 C 5.039062 -21.625 4.566406 -21.4375 4.015625 -21.4375 Z M 4.015625 -21.4375 "/></g></g><g style="fill:#000000;fill-opacity:1;"><g transform="translate(156.490175, 51.642121)"><path style="stroke:none" d="M 23.640625 -12.25 C 23.640625 -9.664062 23.171875 -7.429688 22.234375 -5.546875 C 21.304688 -3.671875 20.023438 -2.222656 18.390625 -1.203125 C 16.765625 -0.179688 14.910156 0.328125 12.828125 0.328125 C 10.734375 0.328125 8.875 -0.179688 7.25 -1.203125 C 5.625 -2.222656 4.34375 -3.671875 3.40625 -5.546875 C 2.476562 -7.429688 2.015625 -9.664062 2.015625 -12.25 C 2.015625 -14.832031 2.476562 -17.0625 3.40625 -18.9375 C 4.34375 -20.820312 5.625 -22.273438 7.25 -23.296875 C 8.875 -24.316406 10.734375 -24.828125 12.828125 -24.828125 C 14.910156 -24.828125 16.765625 -24.316406 18.390625 -23.296875 C 20.023438 -22.273438 21.304688 -20.820312 22.234375 -18.9375 C 23.171875 -17.0625 23.640625 -14.832031 23.640625 -12.25 Z M 20.765625 -12.25 C 20.765625 -14.375 20.410156 -16.164062 19.703125 -17.625 C 19.003906 -19.082031 18.050781 -20.1875 16.84375 -20.9375 C 15.644531 -21.6875 14.304688 -22.0625 12.828125 -22.0625 C 11.335938 -22.0625 9.992188 -21.6875 8.796875 -20.9375 C 7.597656 -20.1875 6.644531 -19.082031 5.9375 -17.625 C 5.226562 -16.164062 4.875 -14.375 4.875 -12.25 C 4.875 -10.125 5.226562 -8.332031 5.9375 -6.875 C 6.644531 -5.414062 7.597656 -4.3125 8.796875 -3.5625 C 9.992188 -2.8125 11.335938 -2.4375 12.828125 -2.4375 C 14.304688 -2.4375 15.644531 -2.8125 16.84375 -3.5625 C 18.050781 -4.3125 19.003906 -5.414062 19.703125 -6.875 C 20.410156 -8.332031 20.765625 -10.125 20.765625 -12.25 Z M 20.765625 -12.25 "/></g></g><g style="fill:#000000;fill-opacity:1;"><g transform="translate(182.125831, 51.642121)"><path style="stroke:none" d="M 16.359375 -18.375 C 16.222656 -19.582031 15.644531 -20.519531 14.625 -21.1875 C 13.601562 -21.863281 12.347656 -22.203125 10.859375 -22.203125 C 9.234375 -22.203125 7.925781 -21.816406 6.9375 -21.046875 C 5.945312 -20.273438 5.453125 -19.304688 5.453125 -18.140625 C 5.453125 -17.253906 5.71875 -16.539062 6.25 -16 C 6.789062 -15.46875 7.429688 -15.050781 8.171875 -14.75 C 8.910156 -14.457031 9.582031 -14.226562 10.1875 -14.0625 L 12.6875 -13.40625 C 13.320312 -13.226562 14.03125 -12.992188 14.8125 -12.703125 C 15.601562 -12.410156 16.359375 -12.007812 17.078125 -11.5 C 17.796875 -11 18.390625 -10.351562 18.859375 -9.5625 C 19.335938 -8.769531 19.578125 -7.800781 19.578125 -6.65625 C 19.578125 -5.332031 19.226562 -4.132812 18.53125 -3.0625 C 17.84375 -1.988281 16.835938 -1.132812 15.515625 -0.5 C 14.203125 0.125 12.601562 0.4375 10.71875 0.4375 C 8.082031 0.4375 5.988281 -0.179688 4.4375 -1.421875 C 2.894531 -2.671875 2.054688 -4.300781 1.921875 -6.3125 L 4.984375 -6.3125 C 5.054688 -5.382812 5.363281 -4.617188 5.90625 -4.015625 C 6.457031 -3.421875 7.15625 -2.976562 8 -2.6875 C 8.84375 -2.394531 9.75 -2.25 10.71875 -2.25 C 11.851562 -2.25 12.867188 -2.429688 13.765625 -2.796875 C 14.671875 -3.171875 15.382812 -3.691406 15.90625 -4.359375 C 16.4375 -5.023438 16.703125 -5.804688 16.703125 -6.703125 C 16.703125 -7.515625 16.472656 -8.175781 16.015625 -8.6875 C 15.566406 -9.195312 14.96875 -9.609375 14.21875 -9.921875 C 13.476562 -10.242188 12.675781 -10.523438 11.8125 -10.765625 L 8.8125 -11.625 C 6.894531 -12.175781 5.375 -12.960938 4.25 -13.984375 C 3.132812 -15.003906 2.578125 -16.34375 2.578125 -18 C 2.578125 -19.363281 2.953125 -20.554688 3.703125 -21.578125 C 4.453125 -22.609375 5.457031 -23.40625 6.71875 -23.96875 C 7.976562 -24.539062 9.390625 -24.828125 10.953125 -24.828125 C 12.535156 -24.828125 13.941406 -24.546875 15.171875 -23.984375 C 16.398438 -23.421875 17.375 -22.65625 18.09375 -21.6875 C 18.8125 -20.71875 19.191406 -19.613281 19.234375 -18.375 Z M 16.359375 -18.375 "/></g></g><g style="fill:#000000;fill-opacity:1;"><g transform="translate(203.600469, 51.642121)"><path style="stroke:none" d=""/></g></g><g style="fill:#000000;fill-opacity:1;"><g transform="translate(213.07035, 51.642121)"><path style="stroke:none" d="M 1.625 -21.875 L 1.625 -24.5 L 20 -24.5 L 20 -21.875 L 12.296875 -21.875 L 12.296875 0 L 9.328125 0 L 9.328125 -21.875 Z M 1.625 -21.875 "/></g></g><g style="fill:#000000;fill-opacity:1;"><g transform="translate(232.009182, 51.642121)"><path style="stroke:none" d="M 10.28125 0.390625 C 8.507812 0.390625 6.984375 0 5.703125 -0.78125 C 4.429688 -1.570312 3.445312 -2.675781 2.75 -4.09375 C 2.0625 -5.507812 1.71875 -7.160156 1.71875 -9.046875 C 1.71875 -10.929688 2.0625 -12.59375 2.75 -14.03125 C 3.445312 -15.46875 4.414062 -16.585938 5.65625 -17.390625 C 6.894531 -18.203125 8.34375 -18.609375 10 -18.609375 C 10.957031 -18.609375 11.898438 -18.445312 12.828125 -18.125 C 13.765625 -17.8125 14.613281 -17.296875 15.375 -16.578125 C 16.144531 -15.867188 16.753906 -14.925781 17.203125 -13.75 C 17.660156 -12.582031 17.890625 -11.140625 17.890625 -9.421875 L 17.890625 -8.234375 L 4.5625 -8.234375 C 4.625 -6.265625 5.175781 -4.757812 6.21875 -3.71875 C 7.269531 -2.675781 8.625 -2.15625 10.28125 -2.15625 C 11.394531 -2.15625 12.347656 -2.394531 13.140625 -2.875 C 13.941406 -3.351562 14.519531 -4.070312 14.875 -5.03125 L 17.609375 -4.265625 C 17.179688 -2.867188 16.320312 -1.742188 15.03125 -0.890625 C 13.738281 -0.0351562 12.15625 0.390625 10.28125 0.390625 Z M 4.5625 -10.671875 L 15.03125 -10.671875 C 15.03125 -12.222656 14.570312 -13.507812 13.65625 -14.53125 C 12.75 -15.5625 11.53125 -16.078125 10 -16.078125 C 8.925781 -16.078125 7.992188 -15.828125 7.203125 -15.328125 C 6.410156 -14.828125 5.785156 -14.160156 5.328125 -13.328125 C 4.878906 -12.503906 4.625 -11.617188 4.5625 -10.671875 Z M 4.5625 -10.671875 "/></g></g><g style="fill:#000000;fill-opacity:1;"><g transform="translate(251.618545, 51.642121)"><path style="stroke:none" d="M 7.984375 0.4375 C 6.828125 0.4375 5.769531 0.21875 4.8125 -0.21875 C 3.863281 -0.664062 3.109375 -1.3125 2.546875 -2.15625 C 1.992188 -3 1.71875 -4.019531 1.71875 -5.21875 C 1.71875 -6.269531 1.925781 -7.125 2.34375 -7.78125 C 2.757812 -8.4375 3.3125 -8.953125 4 -9.328125 C 4.695312 -9.703125 5.46875 -9.984375 6.3125 -10.171875 C 7.15625 -10.359375 8.003906 -10.507812 8.859375 -10.625 C 9.972656 -10.769531 10.878906 -10.878906 11.578125 -10.953125 C 12.273438 -11.023438 12.785156 -11.148438 13.109375 -11.328125 C 13.429688 -11.515625 13.59375 -11.835938 13.59375 -12.296875 L 13.59375 -12.390625 C 13.59375 -13.578125 13.269531 -14.492188 12.625 -15.140625 C 11.976562 -15.796875 11.007812 -16.125 9.71875 -16.125 C 8.363281 -16.125 7.300781 -15.828125 6.53125 -15.234375 C 5.769531 -14.648438 5.234375 -14.019531 4.921875 -13.34375 L 2.25 -14.3125 C 2.726562 -15.425781 3.367188 -16.296875 4.171875 -16.921875 C 4.972656 -17.546875 5.847656 -17.984375 6.796875 -18.234375 C 7.753906 -18.484375 8.695312 -18.609375 9.625 -18.609375 C 10.207031 -18.609375 10.882812 -18.539062 11.65625 -18.40625 C 12.425781 -18.269531 13.171875 -17.984375 13.890625 -17.546875 C 14.617188 -17.117188 15.21875 -16.46875 15.6875 -15.59375 C 16.164062 -14.726562 16.40625 -13.566406 16.40625 -12.109375 L 16.40625 0 L 13.59375 0 L 13.59375 -2.484375 L 13.453125 -2.484375 C 13.253906 -2.085938 12.929688 -1.660156 12.484375 -1.203125 C 12.035156 -0.753906 11.441406 -0.367188 10.703125 -0.046875 C 9.960938 0.273438 9.054688 0.4375 7.984375 0.4375 Z M 8.421875 -2.109375 C 9.535156 -2.109375 10.476562 -2.328125 11.25 -2.765625 C 12.019531 -3.203125 12.601562 -3.765625 13 -4.453125 C 13.394531 -5.148438 13.59375 -5.882812 13.59375 -6.65625 L 13.59375 -9.234375 C 13.46875 -9.085938 13.203125 -8.957031 12.796875 -8.84375 C 12.398438 -8.726562 11.941406 -8.628906 11.421875 -8.546875 C 10.898438 -8.460938 10.390625 -8.390625 9.890625 -8.328125 C 9.398438 -8.273438 9.003906 -8.226562 8.703125 -8.1875 C 7.972656 -8.09375 7.289062 -7.9375 6.65625 -7.71875 C 6.019531 -7.507812 5.507812 -7.195312 5.125 -6.78125 C 4.738281 -6.363281 4.546875 -5.796875 4.546875 -5.078125 C 4.546875 -4.085938 4.910156 -3.34375 5.640625 -2.84375 C 6.367188 -2.351562 7.296875 -2.109375 8.421875 -2.109375 Z M 8.421875 -2.109375 "/></g></g><g style="fill:#000000;fill-opacity:1;"><g transform="translate(270.606146, 51.642121)"><path style="stroke:none" d="M 2.578125 0 L 2.578125 -18.375 L 5.3125 -18.375 L 5.3125 -15.5 L 5.546875 -15.5 C 5.929688 -16.476562 6.550781 -17.238281 7.40625 -17.78125 C 8.257812 -18.332031 9.285156 -18.609375 10.484375 -18.609375 C 11.691406 -18.609375 12.695312 -18.332031 13.5 -17.78125 C 14.3125 -17.238281 14.945312 -16.476562 15.40625 -15.5 L 15.59375 -15.5 C 16.070312 -16.445312 16.78125 -17.203125 17.71875 -17.765625 C 18.65625 -18.328125 19.785156 -18.609375 21.109375 -18.609375 C 22.742188 -18.609375 24.082031 -18.097656 25.125 -17.078125 C 26.175781 -16.054688 26.703125 -14.460938 26.703125 -12.296875 L 26.703125 0 L 23.875 0 L 23.875 -12.296875 C 23.875 -13.648438 23.503906 -14.617188 22.765625 -15.203125 C 22.023438 -15.785156 21.148438 -16.078125 20.140625 -16.078125 C 18.847656 -16.078125 17.847656 -15.6875 17.140625 -14.90625 C 16.429688 -14.132812 16.078125 -13.15625 16.078125 -11.96875 L 16.078125 0 L 13.203125 0 L 13.203125 -12.578125 C 13.203125 -13.628906 12.863281 -14.472656 12.1875 -15.109375 C 11.507812 -15.753906 10.640625 -16.078125 9.578125 -16.078125 C 8.835938 -16.078125 8.148438 -15.878906 7.515625 -15.484375 C 6.878906 -15.097656 6.367188 -14.5625 5.984375 -13.875 C 5.597656 -13.1875 5.40625 -12.390625 5.40625 -11.484375 L 5.40625 0 Z M 2.578125 0 "/></g></g></g></svg>